<?xml version="1.0" encoding="utf-8"?>
<!-- Generator: Adobe Illustrator 18.1.1, SVG Export Plug-In . SVG Version: 6.00 Build 0)  -->
<svg version="1.1" id="Layer_1" xmlns="http://www.w3.org/2000/svg" xmlns:xlink="http://www.w3.org/1999/xlink" x="0px" y="0px"
	 viewBox="0 0 64 53.2" enable-background="new 0 0 64 53.2" xml:space="preserve">
<g>
	<g>
		<path fill="#FFFEF6" d="M60.7,44.6c0,2.9-2.4,5.3-5.3,5.3H8.6c-2.9,0-5.3-2.4-5.3-5.3v-28c0-2.9,2.4-5.3,5.3-5.3h46.8
			c2.9,0,5.3,2.4,5.3,5.3V44.6z"/>
	</g>
	<path fill="#2874BA" d="M51.6,11.3c2.7,0,4.9,2.4,4.9,5.3v28c0,2.9-2.2,5.3-4.9,5.3H8.2c-2.7,0-4.9-2.4-4.9-5.3v-28
		c0-2.9,2.2-5.3,4.9-5.3H51.6"/>
	<path fill="#7ACFDA" d="M53.8,11.3c2.5,0,4.6,2.4,4.6,5.3v28c0,2.9-2.1,5.3-4.6,5.3H13.1c-2.5,0-4.6-2.4-4.6-5.3v-28
		c0-2.9,2.1-5.3,4.6-5.3H53.8"/>
	<g>
		<path fill="#FFFEF6" d="M8.4,17.6c-0.5,0-1-0.4-1-1v-1.8c0-0.5,0.4-1,1-1h6c0.5,0,1,0.4,1,1v1.8c0,0.5-0.4,1-1,1H8.4z"/>
	</g>
	<g>
		<path fill="#FFFEF6" d="M49.6,17.6c-0.5,0-1-0.4-1-1v-1.8c0-0.5,0.4-1,1-1h6c0.5,0,1,0.4,1,1v1.8c0,0.5-0.4,1-1,1H49.6z"/>
	</g>
	<path fill="#FFFFFF" d="M29,43.2c-0.5,0-1-0.4-1-1v-5h-5c-0.5,0-1-0.4-1-1v-6c0-0.5,0.4-1,1-1h5v-5c0-0.5,0.4-1,1-1h6
		c0.5,0,1,0.4,1,1v5h5c0.5,0,1,0.4,1,1v6c0,0.5-0.4,1-1,1h-5v5c0,0.5-0.4,1-1,1H29z"/>
	<g>
		<path fill="#2E3470" d="M41,28.3h-4v-4c0-1.1-0.9-2-2-2h-6c-1.1,0-2,0.9-2,2v4h-4c-1.1,0-2,0.9-2,2v6c0,1.1,0.9,2,2,2h4v4
			c0,1.1,0.9,2,2,2h6c1.1,0,2-0.9,2-2v-4h4c1.1,0,2-0.9,2-2v-6C43,29.1,42.1,28.3,41,28.3z M41,36.3h-6v6h-6v-6h-6v-6h6v-6h6v6h6
			V36.3z"/>
		<path fill="#2E3470" d="M55.4,7.9H43.6V5.6C43.6,2.5,41.1,0,38,0H26c-3.1,0-5.6,2.5-5.6,5.6v2.4H8.6C3.9,7.9,0,11.8,0,16.5v28
			c0,4.7,3.9,8.6,8.6,8.6h46.8c4.7,0,8.6-3.9,8.6-8.6v-28C64,11.8,60.1,7.9,55.4,7.9z M23.7,5.6c0-1.3,1-2.3,2.3-2.3h12
			c1.3,0,2.3,1,2.3,2.3v2.4H23.7V5.6z M8.6,11.3h11.8V12c0,0.9,0.7,1.7,1.7,1.7c0.9,0,1.7-0.7,1.7-1.7v-0.8h16.5v0.4
			c0,0.9,0.7,1.7,1.7,1.7c0.9,0,1.7-0.7,1.7-1.7v-0.4h11.8c2.8,0,5.1,2.2,5.3,4.9c-0.9-0.8-1.9-1.3-3.1-1.5c0-1.1-0.9-1.9-2-1.9h-6
			c-1.1,0-1.9,0.8-2,1.9H16.4c-0.1-1-0.9-1.9-2-1.9h-6c-1.1,0-2,0.9-2,1.9c-1.2,0.2-2.3,0.7-3.1,1.5C3.5,13.4,5.8,11.3,8.6,11.3z
			 M55.6,14.8v1.8h-6v-1.8H55.6z M14.4,14.8v1.8h-6v-1.8H14.4z M60.7,44.6c0,2.9-2.4,5.3-5.3,5.3H8.6c-2.9,0-5.3-2.4-5.3-5.3V20.6
			c0-1.9,1.4-3.5,3.2-3.9c0.1,1,0.9,1.9,2,1.9h6c1.1,0,2-0.9,2-2h31.2c0,1.1,0.9,2,2,2h6c1.1,0,1.9-0.8,2-1.9c1.8,0.4,3.2,2,3.2,3.9
			V44.6z"/>
	</g>
</g>
</svg>
