<?xml version="1.0" encoding="utf-8"?>
<!-- Generator: Adobe Illustrator 18.1.1, SVG Export Plug-In . SVG Version: 6.00 Build 0)  -->
<svg version="1.1" id="Layer_1" xmlns="http://www.w3.org/2000/svg" xmlns:xlink="http://www.w3.org/1999/xlink" x="0px" y="0px"
	 viewBox="0 0 33.4 46.7" enable-background="new 0 0 33.4 46.7" xml:space="preserve">
<rect x="2.4" y="8" fill="#FFFEF6" width="28.5" height="36.2"/>
<rect x="2.4" y="8" fill="#2874BA" width="13.6" height="36.2"/>
<rect x="5" y="8" fill="#7ACFDA" width="24.4" height="36.2"/>
<path fill="#FFFEF6" d="M6.2,40.2c-0.4,0-0.7-0.3-0.7-0.7V8c0-0.4,0.3-0.7,0.7-0.7h21c0.4,0,0.7,0.3,0.7,0.7v31.5
	c0,0.4-0.3,0.7-0.7,0.7H6.2z"/>
<line fill="#FFFEF6" x1="9.2" y1="15" x2="10.2" y2="15"/>
<line fill="#FFFEF6" x1="12.5" y1="15" x2="16.4" y2="15"/>
<line fill="#FFFEF6" x1="9.2" y1="18.6" x2="10.2" y2="18.6"/>
<line fill="#FFFEF6" x1="12.5" y1="18.6" x2="19.8" y2="18.6"/>
<line fill="#FFFEF6" x1="9.2" y1="22.1" x2="10.2" y2="22.1"/>
<line fill="#FFFEF6" x1="12.5" y1="22.1" x2="15.5" y2="22.1"/>
<line fill="#FFFEF6" x1="9.2" y1="25.7" x2="10.2" y2="25.7"/>
<line fill="#FFFEF6" x1="12.5" y1="25.7" x2="24.6" y2="25.7"/>
<line fill="#FFFEF6" x1="9.2" y1="29.3" x2="10.2" y2="29.3"/>
<line fill="#FFFEF6" x1="12.5" y1="29.3" x2="16.4" y2="29.3"/>
<line fill="#FFFEF6" x1="9.2" y1="32.8" x2="10.2" y2="32.8"/>
<line fill="#FFFEF6" x1="12.5" y1="32.8" x2="18.2" y2="32.8"/>
<line fill="#FFFEF6" x1="24.1" y1="36.7" x2="24.8" y2="36.7"/>
<line fill="#FFFEF6" x1="18.2" y1="36.7" x2="21.6" y2="36.7"/>
<path fill="#FFFEF6" d="M10.5,10.4c-0.7,0-1.2-0.5-1.2-1.2V5.5c0-0.7,0.5-1.2,1.2-1.2h2.1c0.5-1.8,2.2-3,4.1-3c1.9,0,3.6,1.3,4.1,3
	h2.1c0.7,0,1.2,0.5,1.2,1.2v3.7c0,0.7-0.5,1.2-1.2,1.2H10.5z"/>
<path opacity="0.5" fill="#2E3470" d="M19.7,5.5c0-1.7-1.4-3-3-3c-1.7,0-3,1.4-3,3h-3.1v3.7h12.3V5.5H19.7z"/>
<g>
	<path fill="#2E3470" d="M10.2,14.3h-1c-0.4,0-0.7,0.3-0.7,0.7s0.3,0.7,0.7,0.7h1c0.4,0,0.7-0.3,0.7-0.7S10.6,14.3,10.2,14.3z"/>
	<path fill="#2E3470" d="M12.5,15.7h3.9c0.4,0,0.7-0.3,0.7-0.7s-0.3-0.7-0.7-0.7h-3.9c-0.4,0-0.7,0.3-0.7,0.7S12.1,15.7,12.5,15.7z"
		/>
	<path fill="#2E3470" d="M10.2,17.8h-1c-0.4,0-0.7,0.3-0.7,0.7s0.3,0.7,0.7,0.7h1c0.4,0,0.7-0.3,0.7-0.7S10.6,17.8,10.2,17.8z"/>
	<path fill="#2E3470" d="M12.5,19.3h7.3c0.4,0,0.7-0.3,0.7-0.7s-0.3-0.7-0.7-0.7h-7.3c-0.4,0-0.7,0.3-0.7,0.7S12.1,19.3,12.5,19.3z"
		/>
	<path fill="#2E3470" d="M10.2,21.4h-1c-0.4,0-0.7,0.3-0.7,0.7c0,0.4,0.3,0.7,0.7,0.7h1c0.4,0,0.7-0.3,0.7-0.7
		C11,21.7,10.6,21.4,10.2,21.4z"/>
	<path fill="#2E3470" d="M12.5,22.9h3c0.4,0,0.7-0.3,0.7-0.7c0-0.4-0.3-0.7-0.7-0.7h-3c-0.4,0-0.7,0.3-0.7,0.7
		C11.8,22.5,12.1,22.9,12.5,22.9z"/>
	<path fill="#2E3470" d="M10.2,25h-1c-0.4,0-0.7,0.3-0.7,0.7c0,0.4,0.3,0.7,0.7,0.7h1c0.4,0,0.7-0.3,0.7-0.7
		C11,25.3,10.6,25,10.2,25z"/>
	<path fill="#2E3470" d="M12.5,26.4h12.1c0.4,0,0.7-0.3,0.7-0.7c0-0.4-0.3-0.7-0.7-0.7H12.5c-0.4,0-0.7,0.3-0.7,0.7
		C11.8,26.1,12.1,26.4,12.5,26.4z"/>
	<path fill="#2E3470" d="M10.2,28.5h-1c-0.4,0-0.7,0.3-0.7,0.7c0,0.4,0.3,0.7,0.7,0.7h1c0.4,0,0.7-0.3,0.7-0.7
		C11,28.9,10.6,28.5,10.2,28.5z"/>
	<path fill="#2E3470" d="M12.5,30h3.9c0.4,0,0.7-0.3,0.7-0.7c0-0.4-0.3-0.7-0.7-0.7h-3.9c-0.4,0-0.7,0.3-0.7,0.7
		C11.8,29.7,12.1,30,12.5,30z"/>
	<path fill="#2E3470" d="M10.2,32.1h-1c-0.4,0-0.7,0.3-0.7,0.7c0,0.4,0.3,0.7,0.7,0.7h1c0.4,0,0.7-0.3,0.7-0.7
		C11,32.4,10.6,32.1,10.2,32.1z"/>
	<path fill="#2E3470" d="M19,32.8c0-0.4-0.3-0.7-0.7-0.7h-5.7c-0.4,0-0.7,0.3-0.7,0.7c0,0.4,0.3,0.7,0.7,0.7h5.7
		C18.6,33.6,19,33.2,19,32.8z"/>
	<path fill="#2E3470" d="M24.8,36h-0.7c-0.4,0-0.7,0.3-0.7,0.7s0.3,0.7,0.7,0.7h0.7c0.4,0,0.7-0.3,0.7-0.7S25.2,36,24.8,36z"/>
	<path fill="#2E3470" d="M21.6,36h-3.4c-0.4,0-0.7,0.3-0.7,0.7s0.3,0.7,0.7,0.7h3.4c0.4,0,0.7-0.3,0.7-0.7S22,36,21.6,36z"/>
	<path fill="#2E3470" d="M30.9,5.6h-5.7V5.5c0-1.3-1.1-2.4-2.4-2.4h-1.2c-0.9-1.8-2.8-3-4.9-3c-2.1,0-4,1.2-4.9,3h-1.2
		C9.2,3,8.1,4.1,8.1,5.5v0.1H2.4C1.1,5.6,0,6.7,0,8v36.2c0,1.3,1.1,2.4,2.4,2.4h28.5c1.3,0,2.4-1.1,2.4-2.4V8
		C33.4,6.7,32.3,5.6,30.9,5.6z M10.5,5.5h3.1c0-1.7,1.4-3,3-3c1.7,0,3,1.4,3,3h3.1v3.7H10.5V5.5z M6.2,8h1.9v1.2
		c0,1.3,1.1,2.4,2.4,2.4h12.3c1.3,0,2.4-1.1,2.4-2.4V8h1.9v31.5h-21V8z M30.9,44.3H2.4V8h2.3v31.5c0,0.8,0.7,1.5,1.5,1.5h21
		c0.8,0,1.5-0.7,1.5-1.5V8h2.3V44.3z"/>
	<circle fill="#2E3470" cx="16.7" cy="5.6" r="1.3"/>
</g>
</svg>
