<?xml version="1.0" encoding="utf-8"?>
<!-- Generator: Adobe Illustrator 18.1.1, SVG Export Plug-In . SVG Version: 6.00 Build 0)  -->
<svg version="1.1" id="Layer_1" xmlns="http://www.w3.org/2000/svg" xmlns:xlink="http://www.w3.org/1999/xlink" x="0px" y="0px"
	 viewBox="0 0 64.6 64.6" enable-background="new 0 0 64.6 64.6" xml:space="preserve">
<circle fill="#FFFFFF" cx="28" cy="32.3" r="24.5"/>
<path fill="#234A9C" d="M32.3,0C14.5,0,0,14.5,0,32.3c0,17.8,14.5,32.3,32.3,32.3c17.8,0,32.3-14.5,32.3-32.3
	C64.6,14.5,50.1,0,32.3,0z M39.2,32.3h-4.5c0,7.2,0,16.1,0,16.1H28c0,0,0-8.8,0-16.1h-3.2v-5.7H28v-3.7c0-2.6,1.3-6.8,6.8-6.8l5,0
	v5.5c0,0-3,0-3.6,0c-0.6,0-1.4,0.3-1.4,1.6v3.3h5.1L39.2,32.3z"/>
</svg>
