<?xml version="1.0" encoding="utf-8"?>
<!-- Generator: Adobe Illustrator 18.1.1, SVG Export Plug-In . SVG Version: 6.00 Build 0)  -->
<svg version="1.1" id="Layer_1" xmlns="http://www.w3.org/2000/svg" xmlns:xlink="http://www.w3.org/1999/xlink" x="0px" y="0px"
	 viewBox="0 0 77.7 36.3" enable-background="new 0 0 77.7 36.3" xml:space="preserve">
<g>
	<g>
		<g>
			<path fill="#FFFEF6" d="M30.8,23.4c4.9-4.9,4.9-12.9,0-17.8c-4.9-4.9-12.9-4.9-17.8,0c-4.4,4.4-4.9,11.2-1.4,16.1l-3.2,3.2
				L5,21.5l-3.2,3.2L5.2,28l-3.3,3.3L5,34.5l3.3-3.3l3.3,3.3l3.2-3.2L11.5,28l3.2-3.2C19.6,28.2,26.4,27.8,30.8,23.4z M16,8.6
				c3.2-3.2,8.4-3.2,11.7,0c3.2,3.2,3.2,8.4,0,11.7c-3.2,3.2-8.4,3.2-11.7,0C12.8,17.1,12.8,11.9,16,8.6z"/>
		</g>
		<g>
			<path fill="#2874BA" d="M3.4,32.9L16,20.3c-3.2-3.2-3.2-8.4,0-11.7s8.4-3.2,11.7,0l3.1-3.1c-4.9-4.9-12.9-4.9-17.8,0
				c-4.4,4.4-4.9,11.2-1.4,16.1l-3.2,3.2L5,21.5l-3.2,3.2L5.2,28l-3.3,3.3L3.4,32.9z"/>
		</g>
		<g>
			<path fill="#7ACFDA" d="M29.2,21.9c4.9-4.9,5.8-12.1,1.9-15.9c-3.9-3.9-11-3-15.9,1.9c-4.4,4.4-5.5,10.5-3,14.5l-3.2,3.2L6.5,23
				l-3.2,3.2l2.6,2.6L2.6,32l2.5,2.5l3.3-3.3l2.6,2.6l3.2-3.2L11.5,28l3.2-3.2C18.7,27.4,24.9,26.2,29.2,21.9z M17.7,10.3
				c3.2-3.2,7.9-3.8,10.4-1.2c2.5,2.5,2,7.2-1.2,10.4c-3.2,3.2-7.9,3.8-10.4,1.2C13.9,18.1,14.4,13.5,17.7,10.3z"/>
		</g>
		<g>
			<path fill="#2E3470" d="M21.9,1.9c3.2,0,6.5,1.2,8.9,3.7c4.9,4.9,4.9,12.9,0,17.8c-2.5,2.5-5.7,3.7-8.9,3.7c-2.5,0-5-0.8-7.2-2.3
				L11.5,28l3.3,3.3l-3.2,3.2l-3.3-3.3L5,34.5l-3.2-3.2L5.2,28l-3.3-3.3L5,21.5l3.3,3.3l3.2-3.2C8.1,16.8,8.6,9.9,13,5.6
				C15.4,3.1,18.6,1.9,21.9,1.9 M21.9,22.7c2.1,0,4.2-0.8,5.8-2.4c3.2-3.2,3.2-8.4,0-11.7C26.1,7,24,6.2,21.9,6.2
				c-2.1,0-4.2,0.8-5.8,2.4c-3.2,3.2-3.2,8.4,0,11.7C17.6,21.9,19.8,22.7,21.9,22.7 M21.9,0C18,0,14.4,1.5,11.6,4.2
				C7,8.8,6.1,15.8,9.2,21.4l-0.8,0.8l-2-2C6,19.9,5.5,19.7,5,19.7l0,0c-0.5,0-1,0.2-1.3,0.5l-3.2,3.2c-0.7,0.7-0.7,1.9,0,2.6l2,2
				l-2,2c-0.7,0.7-0.7,1.9,0,2.6l3.2,3.2c0.3,0.4,0.8,0.5,1.3,0.5c0.5,0,1-0.2,1.3-0.5l2-2l2,2c0.4,0.4,0.8,0.5,1.3,0.5
				s1-0.2,1.3-0.5l3.2-3.2c0.7-0.7,0.7-1.9,0-2.6l-2-2l0.8-0.8c2.1,1.2,4.5,1.8,6.9,1.8c3.9,0,7.5-1.5,10.2-4.2
				c5.6-5.6,5.6-14.8,0-20.5C29.4,1.5,25.7,0,21.9,0L21.9,0z M21.9,20.8c-1.7,0-3.3-0.7-4.5-1.9c-2.5-2.5-2.5-6.5,0-9
				c1.2-1.2,2.8-1.9,4.5-1.9c1.7,0,3.3,0.7,4.5,1.9c2.5,2.5,2.5,6.5,0,9C25.2,20.2,23.6,20.8,21.9,20.8L21.9,20.8z"/>
		</g>
		<g opacity="0.5">
			<path fill="#2E3470" d="M31.4,14.5L31.4,14.5c0,5.3-4.3,9.5-9.5,9.5c-5.3,0-9.5-4.3-9.5-9.5l0,0h-1.8l0,0c0,2.8,1,5.4,2.7,7.3
				l-4.9,4.9l-3.4-3.4l-1.3,1.3L7,28l-3.1,3.1l1.3,1.3l3.1-3.1l3.4,3.4l1.3-1.3L9.6,28l4.9-4.9c2,1.7,4.6,2.8,7.4,2.8
				c6.3,0,11.4-5.1,11.4-11.4L31.4,14.5z"/>
		</g>
	</g>
	<g>
		<g>
			<g>
				<path fill="#FFFEF6" d="M75.7,1.9L75.7,1.9l-13.6,0v4.4l6.1,0l-5.6,5.6c-2-1.5-4.5-2.3-7.2-2.3C48.6,9.6,43,15.1,43,22
					c0,6.9,5.6,12.4,12.4,12.4c6.9,0,12.4-5.6,12.4-12.4c0-2.6-0.8-5-2.1-7l5.6-5.6v6.1h4.4L75.7,1.9L75.7,1.9z M55.5,30.1
					c-4.5,0-8.1-3.6-8.1-8.1c0-4.5,3.6-8.1,8.1-8.1c4.5,0,8.1,3.6,8.1,8.1C63.6,26.5,60,30.1,55.5,30.1z"/>
			</g>
		</g>
		<g>
			<path fill="#2874BA" d="M49.6,27.6c-1.4-1.5-2.3-3.4-2.3-5.6c0-4.5,3.6-8.1,8.1-8.1c2.3,0,4.3,0.9,5.8,2.4L74.5,3L62.1,3.7v2.6
				l6.1,0l-5.6,5.6c-2-1.5-4.5-2.3-7.2-2.3C48.6,9.6,43,15.1,43,22c0,3.4,1.3,6.4,3.5,8.6L49.6,27.6z"/>
		</g>
		<g>
			<path fill="#8CD2D1" d="M48.8,15.4c-4.9,4.9-5.6,12-1.7,15.9c3.9,3.9,11.1,3.2,15.9-1.7c4.3-4.3,5.4-10.5,2.8-14.5l7-7l0,7.7
				l1.7,0.3l0-13.1h-1.1l-9.5,9.5C59.8,10,53.1,11,48.8,15.4z M61.2,27.8c-3.2,3.2-8.3,2.9-10.8,0.3c-2.6-2.6-2.9-7.6,0.3-10.8
				c3.2-3.2,8.3-2.9,10.8-0.3C64.1,19.5,64.4,24.6,61.2,27.8z"/>
		</g>
		<g>
			<path fill="#2E3470" d="M75.7,1.9L75.7,1.9L75.7,1.9l0,13.6h-4.4V9.4L65.8,15c1.4,2,2.1,4.4,2.1,7c0,6.9-5.6,12.4-12.4,12.4
				C48.6,34.4,43,28.9,43,22c0-6.9,5.6-12.4,12.4-12.4c2.7,0,5.2,0.9,7.2,2.3l5.6-5.6l-6.1,0V1.9H75.7 M55.5,30.1
				c4.5,0,8.1-3.6,8.1-8.1c0-4.5-3.6-8.1-8.1-8.1c-4.5,0-8.1,3.6-8.1,8.1C47.3,26.5,51,30.1,55.5,30.1 M75.7,0H62.1
				c-1,0-1.9,0.8-1.9,1.9v4.4c0,0.5,0.2,1,0.6,1.3c0.4,0.4,0.8,0.6,1.3,0.6l0,0h1.5l-1.3,1.3c-2.1-1.2-4.5-1.8-6.9-1.8
				c-7.9,0-14.3,6.4-14.3,14.3c0,7.9,6.4,14.3,14.3,14.3S69.8,29.9,69.8,22c0-2.4-0.6-4.6-1.7-6.7l1.3-1.3v1.5c0,1,0.8,1.9,1.9,1.9
				h4.4c1,0,1.9-0.8,1.9-1.9V1.9c0-0.7-0.4-1.3-0.9-1.6C76.5,0.1,76.1,0,75.7,0L75.7,0z M55.5,28.2c-3.4,0-6.2-2.8-6.2-6.2
				c0-3.4,2.8-6.2,6.2-6.2s6.2,2.8,6.2,6.2C61.7,25.4,58.9,28.2,55.5,28.2L55.5,28.2z"/>
		</g>
		<g opacity="0.5">
			<path fill="#2E3470" d="M63.7,3.2v1.8l7.6,0l-8.5,8.5c-2-1.7-4.6-2.8-7.4-2.8c-6.2,0-11.3,5.1-11.3,11.3l1.8,0l0,0
				c0-5.2,4.2-9.4,9.4-9.4c5.2,0,9.4,4.2,9.4,9.4l0,0h1.8l0,0c0-2.7-1-5.3-2.6-7.2l8.6-8.6l0,7.7h1.8V5.1V3.4V3.2H63.7z"/>
		</g>
	</g>
</g>
</svg>
