<?xml version="1.0" encoding="utf-8"?>
<!-- Generator: Adobe Illustrator 18.1.1, SVG Export Plug-In . SVG Version: 6.00 Build 0)  -->
<svg version="1.1" id="Layer_1" xmlns="http://www.w3.org/2000/svg" xmlns:xlink="http://www.w3.org/1999/xlink" x="0px" y="0px"
	 viewBox="0 0 51 43.2" enable-background="new 0 0 51 43.2" xml:space="preserve">
<g>
	<g>
		<path fill="#FFFEF6" d="M36.9,2.7c-4.7,0-8.7,2.8-10.4,6.8h0c-0.1,0.4-0.5,0.7-1,0.7c-0.5,0-0.8-0.3-1-0.7h0v0
			c-1.8-4-5.8-6.8-10.4-6.8C7.8,2.7,2.7,7.8,2.7,14.1c0,3.7,1.7,6.3,3.7,9.1c5.3,7.5,19.2,17.4,19.2,17.4s13.9-9.8,19.2-17.4
			c1.9-2.8,3.7-5.4,3.7-9.1C48.4,7.8,43.2,2.7,36.9,2.7z"/>
	</g>
	<g>
		<path fill="#2874BA" d="M25.5,10.2c-0.5,0-0.8-0.3-1-0.7h0v0c-1.8-4-5.8-6.8-10.4-6.8C7.8,2.7,2.7,7.8,2.7,14.1
			c0,3.7,1.7,6.3,3.7,9.1c5.2,7.5,19.2,17.4,19.2,17.4V10.2z"/>
	</g>
	<g>
		<path fill="#7ACFDA" d="M36.4,2.7c-3.9,0-8.1,0.9-9.6,4.9l-0.5-0.4C26.1,7.6,26.1,8,25.8,8c-0.4,0,0.3,1.8,0.1,1.4h0v0
			c-1.5-4-4.9-6.8-8.8-6.8c-5.3,0-9.6,5.1-9.6,11.4c0,3.7,1.5,6.3,3.1,9.1c4.4,7.5,15,17.4,15,17.4s12.9-9.8,17.4-17.4
			c1.6-2.8,3.1-5.4,3.1-9.1C46,7.8,41.7,2.7,36.4,2.7z"/>
	</g>
	<g>
		<path fill="#FFFEF6" stroke="#65385B" stroke-width="6" stroke-linejoin="round" stroke-miterlimit="10" d="M19.5,10.8"/>
	</g>
	<g opacity="0.5">
		<path fill="#2E3470" d="M7.4,20.7L7.4,20.7c0.2,0.4,0.5,0.8,0.8,1.2c4.1,5.8,13.9,13.3,17.4,15.9c3.5-2.6,13.3-10.1,17.4-15.9
			c0.2-0.3,0.5-0.8,0.8-1.2L7.4,20.7z"/>
	</g>
	<g>
		<path fill="#2E3470" d="M36.9,0c-4.6,0-8.8,2.2-11.4,5.8C22.9,2.2,18.7,0,14.1,0C6.3,0,0,6.3,0,14.1c0,4.6,2.3,7.9,4.2,10.6
			c5.5,7.8,19.2,17.6,19.8,18c0.5,0.3,1,0.5,1.5,0.5c0.5,0,1.1-0.2,1.5-0.5c0.6-0.4,14.4-10.2,19.8-18c1.8-2.7,4.2-6,4.2-10.6
			C51,6.3,44.7,0,36.9,0z M44.7,23.2c-5.3,7.5-19.2,17.4-19.2,17.4S11.6,30.7,6.3,23.2c-1.9-2.8-3.7-5.4-3.7-9.1
			c0-6.3,5.1-11.4,11.4-11.4c4.7,0,8.7,2.8,10.4,6.8v0h0c0.1,0.4,0.5,0.7,1,0.7c0.5,0,0.8-0.3,1-0.7h0c1.8-4,5.8-6.8,10.4-6.8
			c6.3,0,11.4,5.1,11.4,11.4C48.4,17.7,46.6,20.4,44.7,23.2z"/>
		<path fill="#2E3470" d="M43.7,20.1h-5.4c-0.3,0-0.6,0.2-0.8,0.5l-1.3,3.7l-2.7-8.1c-0.1-0.3-0.4-0.5-0.7-0.5
			c-0.4,0-0.6,0.2-0.8,0.5l-2.5,6.7l-1-2.4c-0.1-0.3-0.4-0.5-0.7-0.5h-4.8c-0.3,0-0.6,0.2-0.8,0.5l-1.4,3.8L18,16.2
			c-0.1-0.3-0.4-0.5-0.7-0.5c-0.3,0-0.6,0.2-0.8,0.5L14,22.8l-1-2.4c-0.1-0.3-0.4-0.5-0.7-0.5H7.4c-0.4,0-0.8,0.4-0.8,0.8
			c0,0.4,0.4,0.8,0.8,0.8h4.3l1.6,3.8c0.1,0.3,0.4,0.5,0.8,0.5c0.3,0,0.6-0.2,0.7-0.5l2.4-6.4l2.7,8.2c0.1,0.3,0.4,0.5,0.8,0.5
			c0,0,0,0,0,0c0.3,0,0.6-0.2,0.8-0.5l1.9-5.5h3.7l1.6,3.8c0.1,0.3,0.4,0.5,0.8,0.5c0.3,0,0.6-0.2,0.7-0.5l2.4-6.4l2.7,8.2
			c0.1,0.3,0.4,0.5,0.7,0.5c0,0,0,0,0,0c0.3,0,0.6-0.2,0.8-0.5l1.9-5.3h4.8c0.4,0,0.8-0.4,0.8-0.8C44.5,20.5,44.1,20.1,43.7,20.1z"
			/>
	</g>
</g>
</svg>
