<?xml version="1.0" encoding="utf-8"?>
<!-- Generator: Adobe Illustrator 18.1.1, SVG Export Plug-In . SVG Version: 6.00 Build 0)  -->
<svg version="1.1" id="Layer_1" xmlns="http://www.w3.org/2000/svg" xmlns:xlink="http://www.w3.org/1999/xlink" x="0px" y="0px"
	 viewBox="0 0 45.4 56.1" enable-background="new 0 0 45.4 56.1" xml:space="preserve">
<g>
	<g>
		<path fill="#FFFEF6" d="M22.7,1.5C11,1.5,1.5,11,1.5,22.7c0,16.4,21.2,31.9,21.2,31.9s21.2-15.5,21.2-31.9
			C43.9,11,34.4,1.5,22.7,1.5z M22.7,38.9c-9,0-16.2-7.3-16.2-16.2S13.8,6.5,22.7,6.5c3.4,0,6.5,1,9.1,2.8c0.5,0.3,1,0.7,1.5,1.1
			c0.4,0.3,0.8,0.7,1.1,1.1c2.8,2.9,4.6,6.9,4.6,11.3C38.9,31.7,31.7,38.9,22.7,38.9z"/>
	</g>
	<g>
		<path fill="#2874BA" d="M22.7,38.9c-9,0-16.2-7.3-16.2-16.2S13.8,6.5,22.7,6.5v-5C11,1.5,1.5,11,1.5,22.7
			c0,16.4,21.2,31.9,21.2,31.9V38.9z"/>
	</g>
	<g opacity="0.5">
		<g>
			<path fill="#2E3470" d="M22.7,6.5c0.2,0,0.4,0,0.6,0c0.2,0,0.4,0,0.6,0c1,0,2,0.2,2.9,0.5c1.8,0.5,3.4,1.2,4.9,2.2
				c0.5,0.3,1,0.7,1.5,1.1c0.4,0.3,0.8,0.7,1.1,1.1c2.1,2.1,3.6,4.9,4.2,7.9c-1.3-10.3-8.3-19-15.7-19c-5.4,0-9.7,4.7-11.9,11.2
				C13.9,8.5,18.1,6.5,22.7,6.5z"/>
		</g>
		<g>
			<path fill="#2E3470" d="M26.8,38.4c-0.9,0.3-1.9,0.5-2.9,0.5c-0.2,0-0.3,0-0.5,0c-0.2,0-0.5,0-0.7,0c-4.5,0-8.6-1.9-11.5-4.8
				C15,45.2,22.9,53.5,22.9,53.5s13.7-12.4,15.7-27.3C37.2,32.1,32.7,36.8,26.8,38.4z"/>
		</g>
	</g>
	<path fill="#FFFFFF" d="M20.1,31.3c-0.5,0-0.9-0.4-0.9-0.9v-4.2H15c-0.5,0-0.9-0.4-0.9-0.9v-5.2c0-0.5,0.4-0.9,0.9-0.9h4.2V15
		c0-0.5,0.4-0.9,0.9-0.9h5.2c0.5,0,0.9,0.4,0.9,0.9v4.2h4.2c0.5,0,0.9,0.4,0.9,0.9v5.2c0,0.5-0.4,0.9-0.9,0.9h-4.2v4.2
		c0,0.5-0.4,0.9-0.9,0.9H20.1z"/>
	<g>
		<path fill="#2E3470" d="M22.7,0C10.2,0,0,10.2,0,22.7c0,17,21,32.4,21.8,33.1c0.3,0.2,0.6,0.3,0.9,0.3c0.3,0,0.6-0.1,0.9-0.3
			c0.9-0.7,21.8-16.1,21.8-33.1C45.4,10.2,35.2,0,22.7,0z M22.7,52.8C18.8,49.7,2.9,36.4,2.9,22.7c0-10.9,8.9-19.8,19.8-19.8
			c10.9,0,19.8,8.9,19.8,19.8C42.5,36.3,26.6,49.7,22.7,52.8z"/>
		<path fill="#2E3470" d="M35,10.8c-0.4-0.4-0.8-0.8-1.2-1.1c-0.5-0.4-1-0.8-1.5-1.2c-2.8-1.9-6.1-2.9-9.5-2.9
			c-9.4,0-17.1,7.7-17.1,17.1s7.7,17.1,17.1,17.1c9.4,0,17.1-7.7,17.1-17.1C39.8,18.2,38.1,14,35,10.8z M22.7,38
			c-8.5,0-15.3-6.9-15.3-15.3S14.2,7.4,22.7,7.4c3.1,0,6,0.9,8.6,2.6c0.5,0.3,0.9,0.7,1.4,1.1c0.4,0.3,0.7,0.7,1.1,1
			c2.8,2.9,4.3,6.7,4.3,10.7C38,31.2,31.2,38,22.7,38z"/>
		<path fill="#2E3470" d="M30.4,18.4H27V15c0-1-0.8-1.8-1.7-1.8h-5.2c-1,0-1.8,0.8-1.8,1.8v3.3H15c-1,0-1.7,0.8-1.7,1.8v5.2
			c0,1,0.8,1.7,1.7,1.7h3.3v3.3c0,1,0.8,1.7,1.8,1.7h5.2c1,0,1.7-0.8,1.7-1.7V27h3.3c1,0,1.7-0.8,1.7-1.7v-5.2
			C32.1,19.2,31.4,18.4,30.4,18.4z M30.4,25.3h-5.1v5.1h-5.2v-5.1H15v-5.2h5.1V15h5.2v5.1h5.1V25.3z"/>
	</g>
</g>
</svg>
