<?xml version="1.0" encoding="utf-8"?>
<!-- Generator: Adobe Illustrator 18.1.1, SVG Export Plug-In . SVG Version: 6.00 Build 0)  -->
<svg version="1.1" id="Layer_1" xmlns="http://www.w3.org/2000/svg" xmlns:xlink="http://www.w3.org/1999/xlink" x="0px" y="0px"
	 viewBox="0 0 44.7 44.7" enable-background="new 0 0 44.7 44.7" xml:space="preserve">
<g>
	<g>
		<path fill="#FFFEF6" d="M38.8,23.5L21.2,5.9c-0.1-0.1-0.2-0.2-0.3-0.4c-4.2-4.2-11.1-4.2-15.3,0c-4.2,4.2-4.2,11.1,0,15.3
			l18.8,18.8l0,0c4.3,3.7,10.8,3.6,14.8-0.5c4.1-4.1,4.2-10.6,0.5-14.8l0,0l-0.1-0.2c-0.1-0.1-0.2-0.2-0.3-0.4
			C39.1,23.7,38.9,23.6,38.8,23.5z"/>
	</g>
	<g>
		<g>
			<path fill="#2874BA" d="M6.2,4.9C6,5.1,5.8,5.3,5.5,5.5c-4.2,4.2-4.2,11.1,0,15.3l18.8,18.8l0,0c4.3,3.7,10.8,3.6,14.8-0.5
				c0.2-0.2,0.4-0.5,0.6-0.7L6.2,4.9z"/>
		</g>
		<g>
			<path fill="#7ACFDA" d="M36.3,26L18.7,8.4c-0.1-0.1-0.2-0.2-0.3-0.4C14.1,3.8,8.8,2.2,6.5,4.5C4.3,6.8,5.9,12,10.1,16.3
				l18.8,18.8l0,0c4.1,3.9,9.1,5.3,11.3,3.1C42.4,36,41,31,37.1,26.9l0,0L37,26.7c-0.1-0.1-0.2-0.2-0.3-0.4
				C36.5,26.3,36.4,26.2,36.3,26z"/>
		</g>
		<path fill="#2E3470" d="M41.6,23c-0.1-0.1-0.2-0.2-0.3-0.3l-0.1-0.1c0,0,0,0-0.1-0.1c-0.1-0.1-0.2-0.2-0.3-0.4
			c-0.1-0.1-0.3-0.2-0.4-0.3l-0.1-0.1L22.9,4.3c0,0,0,0-0.1-0.1c-0.1-0.1-0.2-0.2-0.3-0.4C20,1.4,16.7,0,13.2,0
			C9.7,0,6.4,1.4,3.9,3.9C1.4,6.4,0,9.7,0,13.2c0,3.5,1.4,6.8,3.9,9.3l18.8,18.8c0.1,0.1,0.3,0.3,0.5,0.4c2.4,1.9,5.3,3,8.4,3
			c3.5,0,6.8-1.4,9.3-3.9C45.7,36,46,28.2,41.6,23z M39.2,39.2c-2.1,2.1-4.9,3.2-7.7,3.2c-2.6,0-5.1-0.9-7.2-2.7l0,0L15,30.4
			l9.8-9.8c0.3-0.3,0.3-0.7,0-1c-0.3-0.3-0.7-0.3-1,0L14,29.4l-8.5-8.5c-4.2-4.2-4.2-11.1,0-15.3c2.1-2.1,4.9-3.2,7.7-3.2
			s5.6,1.1,7.7,3.2c0.1,0.1,0.2,0.2,0.3,0.4l8.2,8.2l-2.5,2.5c-0.3,0.3-0.3,0.7,0,1c0.1,0.1,0.3,0.2,0.5,0.2c0.2,0,0.4-0.1,0.5-0.2
			l2.5-2.5l8.5,8.5c0.1,0.1,0.2,0.2,0.4,0.3c0.1,0.1,0.2,0.2,0.3,0.4l0.1,0.2l0,0C43.4,28.6,43.2,35.1,39.2,39.2z"/>
		<g opacity="0.54">
			<g>
				<path fill="#2E3470" d="M30.4,19L19,30.4l7.2,7.2l0,0c3.2,2.8,8,2.7,11.1-0.4c3-3,3.2-7.9,0.4-11.1l0,0l-0.1-0.1
					c-0.1-0.1-0.2-0.2-0.2-0.3c-0.1-0.1-0.2-0.2-0.3-0.2L30.4,19z"/>
			</g>
		</g>
	</g>
</g>
</svg>
